<?xml version="1.0" encoding="UTF-8" standalone="no"?>
<!DOCTYPE svg PUBLIC "-//W3C//DTD SVG 1.1//EN"
 "http://www.w3.org/Graphics/SVG/1.1/DTD/svg11.dtd">
<!-- Generated by graphviz version 2.43.0 (0)
 -->
<!-- Title: G Pages: 1 -->
<svg width="768pt" height="548pt"
 viewBox="0.00 0.00 768.03 548.00" xmlns="http://www.w3.org/2000/svg" xmlns:xlink="http://www.w3.org/1999/xlink">
<g id="graph0" class="graph" transform="scale(1 1) rotate(0) translate(4 544)">
<title>G</title>
<polygon fill="white" stroke="transparent" points="-4,4 -4,-544 764.03,-544 764.03,4 -4,4"/>
<!-- n2 -->
<g id="node1" class="node">
<title>n2</title>
<ellipse fill="none" stroke="red" cx="591.73" cy="-18" rx="27" ry="18"/>
<text text-anchor="middle" x="591.73" y="-14.3" font-family="Times,serif" font-size="14.00">all</text>
</g>
<!-- n3 -->
<g id="node2" class="node">
<title>n3</title>
<ellipse fill="none" stroke="red" cx="632.73" cy="-306" rx="34.39" ry="18"/>
<text text-anchor="middle" x="632.73" y="-302.3" font-family="Times,serif" font-size="14.00">build</text>
</g>
<!-- n3&#45;&gt;n2 -->
<g id="edge1" class="edge">
<title>n3&#45;&gt;n2</title>
<path fill="none" stroke="black" d="M651.96,-290.88C663.27,-281.33 676.52,-267.64 682.73,-252 688.64,-237.13 686.17,-231.63 682.73,-216 668.22,-149.97 629.33,-79.7 607.38,-43.59"/>
<polygon fill="black" stroke="black" points="610.16,-41.43 601.93,-34.75 604.2,-45.1 610.16,-41.43"/>
</g>
<!-- n10 -->
<g id="node9" class="node">
<title>n10</title>
<ellipse fill="none" stroke="red" cx="563.73" cy="-234" rx="110.48" ry="18"/>
<text text-anchor="middle" x="563.73" y="-230.3" font-family="Times,serif" font-size="14.00">output/timestamp.txt</text>
</g>
<!-- n3&#45;&gt;n10 -->
<g id="edge10" class="edge">
<title>n3&#45;&gt;n10</title>
<path fill="none" stroke="black" d="M617.42,-289.46C608.69,-280.61 597.55,-269.31 587.68,-259.3"/>
<polygon fill="black" stroke="black" points="589.96,-256.63 580.45,-251.96 584.98,-261.54 589.96,-256.63"/>
</g>
<!-- n8 -->
<g id="node3" class="node">
<title>n8</title>
<ellipse fill="none" stroke="green" cx="474.73" cy="-522" rx="75.29" ry="18"/>
<text text-anchor="middle" x="474.73" y="-518.3" font-family="Times,serif" font-size="14.00">include/utils.c</text>
</g>
<!-- n6 -->
<g id="node5" class="node">
<title>n6</title>
<ellipse fill="none" stroke="red" cx="559.73" cy="-450" rx="76.09" ry="18"/>
<text text-anchor="middle" x="559.73" y="-446.3" font-family="Times,serif" font-size="14.00">include/utils.o</text>
</g>
<!-- n8&#45;&gt;n6 -->
<g id="edge5" class="edge">
<title>n8&#45;&gt;n6</title>
<path fill="none" stroke="black" d="M494.87,-504.41C505.88,-495.34 519.69,-483.97 531.73,-474.06"/>
<polygon fill="black" stroke="black" points="534.24,-476.53 539.73,-467.47 529.79,-471.13 534.24,-476.53"/>
</g>
<!-- n7 -->
<g id="node4" class="node">
<title>n7</title>
<ellipse fill="none" stroke="green" cx="644.73" cy="-522" rx="76.89" ry="18"/>
<text text-anchor="middle" x="644.73" y="-518.3" font-family="Times,serif" font-size="14.00">include/utils.h</text>
</g>
<!-- n7&#45;&gt;n6 -->
<g id="edge6" class="edge">
<title>n7&#45;&gt;n6</title>
<path fill="none" stroke="black" d="M624.59,-504.41C613.58,-495.34 599.77,-483.97 587.73,-474.06"/>
<polygon fill="black" stroke="black" points="589.67,-471.13 579.73,-467.47 585.22,-476.53 589.67,-471.13"/>
</g>
<!-- n4 -->
<g id="node7" class="node">
<title>n4</title>
<ellipse fill="none" stroke="red" cx="632.73" cy="-378" rx="42.49" ry="18"/>
<text text-anchor="middle" x="632.73" y="-374.3" font-family="Times,serif" font-size="14.00">main.o</text>
</g>
<!-- n6&#45;&gt;n4 -->
<g id="edge7" class="edge">
<title>n6&#45;&gt;n4</title>
<path fill="none" stroke="black" d="M577.03,-432.41C586.53,-423.3 598.46,-411.87 608.83,-401.92"/>
<polygon fill="black" stroke="black" points="611.26,-404.44 616.06,-394.99 606.42,-399.38 611.26,-404.44"/>
</g>
<!-- n5 -->
<g id="node6" class="node">
<title>n5</title>
<ellipse fill="none" stroke="green" cx="706.73" cy="-450" rx="53.09" ry="18"/>
<text text-anchor="middle" x="706.73" y="-446.3" font-family="Times,serif" font-size="14.00">main.cpp</text>
</g>
<!-- n5&#45;&gt;n4 -->
<g id="edge8" class="edge">
<title>n5&#45;&gt;n4</title>
<path fill="none" stroke="black" d="M689.57,-432.76C679.81,-423.53 667.44,-411.83 656.73,-401.7"/>
<polygon fill="black" stroke="black" points="658.96,-399 649.29,-394.67 654.15,-404.08 658.96,-399"/>
</g>
<!-- n4&#45;&gt;n3 -->
<g id="edge4" class="edge">
<title>n4&#45;&gt;n3</title>
<path fill="none" stroke="black" d="M632.73,-359.7C632.73,-351.98 632.73,-342.71 632.73,-334.11"/>
<polygon fill="black" stroke="black" points="636.23,-334.1 632.73,-324.1 629.23,-334.1 636.23,-334.1"/>
</g>
<!-- n12 -->
<g id="node8" class="node">
<title>n12</title>
<ellipse fill="none" stroke="red" cx="322.73" cy="-162" rx="91.78" ry="18"/>
<text text-anchor="middle" x="322.73" y="-158.3" font-family="Times,serif" font-size="14.00">output/reference/</text>
</g>
<!-- n11 -->
<g id="node12" class="node">
<title>n11</title>
<ellipse fill="none" stroke="red" cx="534.73" cy="-90" rx="28.7" ry="18"/>
<text text-anchor="middle" x="534.73" y="-86.3" font-family="Times,serif" font-size="14.00">test</text>
</g>
<!-- n12&#45;&gt;n11 -->
<g id="edge12" class="edge">
<title>n12&#45;&gt;n11</title>
<path fill="none" stroke="black" d="M367.43,-146.24C407.07,-133.15 464.14,-114.31 500.32,-102.36"/>
<polygon fill="black" stroke="black" points="501.54,-105.64 509.94,-99.19 499.35,-99 501.54,-105.64"/>
</g>
<!-- n9 -->
<g id="node11" class="node">
<title>n9</title>
<ellipse fill="none" stroke="red" cx="563.73" cy="-162" rx="27" ry="18"/>
<text text-anchor="middle" x="563.73" y="-158.3" font-family="Times,serif" font-size="14.00">run</text>
</g>
<!-- n10&#45;&gt;n9 -->
<g id="edge11" class="edge">
<title>n10&#45;&gt;n9</title>
<path fill="none" stroke="black" d="M563.73,-215.7C563.73,-207.98 563.73,-198.71 563.73,-190.11"/>
<polygon fill="black" stroke="black" points="567.23,-190.1 563.73,-180.1 560.23,-190.1 567.23,-190.1"/>
</g>
<!-- n13 -->
<g id="node10" class="node">
<title>n13</title>
<ellipse fill="none" stroke="green" cx="217.73" cy="-234" rx="217.96" ry="18"/>
<text text-anchor="middle" x="217.73" y="-230.3" font-family="Times,serif" font-size="14.00">reference&#45;python/latticeboltzmann_prints.py</text>
</g>
<!-- n13&#45;&gt;n12 -->
<g id="edge9" class="edge">
<title>n13&#45;&gt;n12</title>
<path fill="none" stroke="black" d="M243.15,-216.05C257.05,-206.79 274.44,-195.19 289.42,-185.21"/>
<polygon fill="black" stroke="black" points="291.53,-188.01 297.91,-179.55 287.65,-182.18 291.53,-188.01"/>
</g>
<!-- n9&#45;&gt;n2 -->
<g id="edge2" class="edge">
<title>n9&#45;&gt;n2</title>
<path fill="none" stroke="black" d="M567.11,-143.87C571.9,-119.56 580.72,-74.82 586.4,-46.01"/>
<polygon fill="black" stroke="black" points="589.84,-46.68 588.34,-36.19 582.97,-45.32 589.84,-46.68"/>
</g>
<!-- n9&#45;&gt;n11 -->
<g id="edge13" class="edge">
<title>n9&#45;&gt;n11</title>
<path fill="none" stroke="black" d="M556.86,-144.41C553.51,-136.34 549.41,-126.43 545.65,-117.35"/>
<polygon fill="black" stroke="black" points="548.82,-115.86 541.76,-107.96 542.35,-118.53 548.82,-115.86"/>
</g>
<!-- n11&#45;&gt;n2 -->
<g id="edge3" class="edge">
<title>n11&#45;&gt;n2</title>
<path fill="none" stroke="black" d="M547.38,-73.46C554.83,-64.31 564.41,-52.55 572.75,-42.31"/>
<polygon fill="black" stroke="black" points="575.52,-44.46 579.12,-34.49 570.09,-40.04 575.52,-44.46"/>
</g>
</g>
</svg>
